<?xml version="1.0" standalone="no"?>
<!DOCTYPE svg PUBLIC "-//W3C//DTD SVG 20010904//EN"
 "http://www.w3.org/TR/2001/REC-SVG-20010904/DTD/svg10.dtd">
<svg version="1.0" xmlns="http://www.w3.org/2000/svg"
 width="512.000000pt" height="512.000000pt" viewBox="0 0 512.000000 512.000000"
 preserveAspectRatio="xMidYMid meet">
<metadata>
Created by potrace 1.11, written by Peter Selinger 2001-2013
</metadata>
<g transform="translate(0.000000,512.000000) scale(0.100000,-0.100000)"
fill="#000000" stroke="none">
<path d="M3014 5110 c-8 -8 -10 -47 -6 -121 8 -173 -24 -316 -104 -469 -49
-94 -124 -163 -375 -345 -286 -207 -385 -293 -504 -436 -17 -19 -57 -48 -90
-65 -33 -16 -62 -32 -65 -35 -9 -10 -55 -33 -63 -31 -4 1 -6 -3 -5 -10 2 -7
-3 -12 -10 -13 -7 0 -17 -6 -21 -14 -5 -8 -14 -10 -21 -6 -8 5 -11 4 -7 -2 6
-10 -27 -43 -44 -43 -5 0 -7 -4 -4 -10 3 -5 2 -10 -3 -10 -15 0 -90 -79 -83
-86 3 -4 -2 -4 -12 -1 -11 4 -16 3 -12 -4 4 -5 -7 -24 -25 -40 -17 -17 -29
-33 -26 -36 3 -3 -4 -14 -16 -25 -24 -21 -27 -26 -84 -140 -46 -92 -58 -119
-56 -130 1 -5 -2 -8 -6 -8 -8 0 -10 -7 -14 -50 -1 -11 -6 -20 -11 -20 -5 0 -7
-9 -4 -21 3 -13 0 -22 -10 -26 -12 -5 -12 -7 -1 -14 8 -6 9 -9 1 -9 -6 0 -10
-8 -8 -17 1 -10 -1 -28 -6 -40 -4 -12 -9 -43 -10 -68 -2 -25 -6 -48 -11 -51
-4 -3 -4 -13 2 -23 5 -10 7 -21 4 -24 -8 -7 -11 -97 -4 -97 3 0 6 -9 7 -20 1
-11 -3 -20 -9 -20 -7 0 -7 -4 0 -12 8 -11 22 -91 25 -150 1 -10 5 -18 10 -18
5 0 7 -6 4 -14 -3 -7 0 -19 6 -25 6 -6 9 -11 7 -12 -20 -3 -42 -9 -85 -24
-140 -48 -195 -101 -195 -185 0 -120 131 -206 397 -260 55 -11 112 -20 126
-20 15 0 37 -13 56 -32 l31 -32 -62 -19 c-35 -10 -70 -25 -79 -33 -9 -8 -18
-12 -21 -9 -8 8 -88 -75 -89 -93 -7 -78 22 -124 108 -169 81 -43 216 -86 308
-99 11 -2 67 -10 125 -18 76 -11 168 -14 335 -11 218 3 257 6 365 21 25 3 59
8 75 10 121 14 248 34 395 64 52 10 109 21 125 24 17 3 56 11 88 19 l57 14 55
-52 c30 -29 51 -55 48 -59 -4 -3 -1 -6 6 -6 7 0 32 -20 57 -44 l43 -44 63 64
c57 57 72 66 163 99 221 79 357 157 471 270 94 93 134 174 138 282 2 42 -1 92
-6 111 -5 19 -11 43 -13 53 -2 10 -18 49 -36 85 -97 205 -312 266 -595 170
-93 -32 -144 -60 -144 -79 0 -30 26 -46 85 -52 86 -9 112 -14 185 -37 156 -50
228 -152 189 -269 -28 -81 -190 -275 -299 -357 l-25 -19 -117 118 c-64 64
-114 119 -111 122 3 3 -5 3 -16 0 -12 -3 -20 -8 -17 -10 2 -2 -11 -20 -30 -39
-19 -19 -31 -34 -27 -34 4 0 -5 -9 -22 -20 -16 -11 -25 -20 -20 -20 6 -1 0 -6
-12 -13 -12 -7 -22 -16 -23 -22 -1 -5 -6 -9 -11 -8 -5 2 -9 -2 -9 -8 0 -5 -5
-7 -12 -3 -6 4 -8 3 -5 -3 4 -6 1 -15 -6 -21 -9 -8 -28 0 -69 29 -32 21 -62
39 -68 39 -6 0 -6 7 2 20 7 10 14 17 17 15 2 -3 14 7 27 20 13 14 27 25 32 25
5 0 15 11 22 25 7 13 17 22 21 20 4 -3 10 4 14 15 3 11 13 20 21 20 8 0 13 4
10 9 -3 5 1 12 10 15 9 4 14 9 11 12 -3 3 8 19 24 35 16 16 26 29 23 29 -4 0
1 10 12 23 11 12 26 35 34 51 8 17 33 48 54 70 38 40 55 89 35 102 -5 3 -2 12
6 20 8 9 13 20 10 25 -4 5 -2 9 3 9 5 0 9 6 10 13 1 14 10 52 12 52 1 0 3 7 5
15 2 8 8 35 13 60 6 25 14 72 17 105 4 33 14 68 23 78 13 14 13 18 3 15 -11
-2 -15 14 -16 72 -2 67 -7 118 -21 215 -3 17 -5 36 -6 43 -1 6 -5 12 -9 12 -4
0 -6 13 -5 30 1 16 -2 31 -8 33 -5 2 -11 14 -13 26 -8 54 -86 210 -153 306
-19 28 -33 55 -32 60 2 6 0 7 -4 3 -9 -9 -55 43 -48 54 3 4 1 8 -5 8 -6 0 -38
27 -73 60 -34 33 -68 60 -75 60 -7 0 -12 4 -10 9 1 5 -1 9 -6 10 -4 0 -13 5
-20 11 -6 5 -23 19 -37 30 l-25 20 65 60 c36 34 132 116 213 182 138 113 148
124 145 152 -2 26 -8 32 -31 34 -57 7 -349 -134 -618 -297 -30 -18 -39 -19
-50 -9 -8 7 -27 15 -44 17 -16 1 -37 6 -45 11 -8 4 -23 6 -32 5 -10 -2 -18 1
-18 6 0 4 -8 6 -17 3 -10 -3 9 18 42 47 125 111 279 267 331 336 128 170 184
373 155 563 -16 102 -56 224 -100 306 -32 59 -42 69 -67 72 -16 2 -34 -2 -40
-8z m-459 -1597 c17 0 36 -2 42 -2 8 -1 0 -22 -21 -53 -59 -94 -71 -140 -69
-258 1 -66 9 -133 22 -180 10 -41 21 -82 23 -90 1 -8 5 -17 8 -20 3 -3 19 -31
35 -63 17 -33 61 -100 99 -150 113 -149 116 -154 116 -211 0 -60 -20 -142 -56
-233 -21 -53 -24 -70 -15 -89 17 -38 52 -30 118 25 252 210 338 442 248 666
-15 39 -61 122 -102 186 -40 64 -81 138 -89 164 -18 52 -14 126 9 170 l13 26
27 -21 c15 -12 27 -19 27 -17 0 10 65 -48 142 -125 43 -43 74 -78 71 -78 -4 0
3 -10 15 -23 12 -13 19 -27 15 -30 -3 -4 -1 -7 5 -7 7 0 12 -6 12 -14 0 -8 4
-16 8 -18 11 -4 52 -86 52 -103 0 -8 4 -15 9 -15 5 0 11 -12 14 -27 3 -16 8
-39 12 -53 3 -14 8 -32 10 -40 2 -8 4 -15 6 -15 3 0 9 -39 13 -98 3 -31 8 -61
11 -66 3 -5 1 -12 -5 -16 -7 -4 -7 -12 0 -24 5 -10 7 -21 4 -24 -4 -4 -14 -90
-17 -149 -1 -10 -4 -18 -7 -18 -3 0 -6 -8 -7 -18 -2 -25 -7 -46 -13 -52 -3 -3
-13 -29 -24 -59 -10 -30 -24 -61 -32 -69 -8 -7 -12 -17 -9 -21 2 -5 -4 -16
-15 -26 -11 -10 -17 -21 -14 -26 9 -15 -40 -37 -96 -43 -275 -30 -510 -40
-895 -40 -417 0 -460 2 -486 25 -14 12 -16 18 -7 22 8 4 7 6 -4 6 -10 1 -18 6
-18 12 0 7 -8 19 -17 28 -45 41 -14 61 145 97 66 14 102 33 102 53 0 4 -6 16
-14 26 -12 16 -26 18 -127 16 -63 -1 -133 -4 -157 -6 -34 -2 -42 0 -38 11 3 8
0 14 -6 14 -6 0 -8 3 -5 7 4 3 1 13 -6 21 -7 10 -8 13 -1 9 8 -5 8 5 -1 30 -7
21 -11 46 -10 55 2 10 0 18 -5 18 -10 0 -8 19 4 39 6 9 5 12 -1 8 -6 -4 -10
19 -10 63 0 39 4 70 9 70 5 0 6 6 2 12 -11 17 -12 48 -3 48 4 0 6 9 4 20 -2
11 1 20 6 20 6 0 7 5 4 10 -4 6 -1 27 6 48 7 20 14 39 14 42 10 49 20 78 32
92 8 9 16 22 17 30 5 24 29 68 38 68 5 0 6 5 3 10 -3 6 -1 10 4 10 6 0 11 7
11 15 0 8 5 15 10 15 6 0 14 8 17 18 4 9 17 27 30 39 13 12 23 25 23 28 0 3 3
5 7 5 4 1 13 -30 19 -67 38 -214 163 -414 415 -665 147 -146 185 -172 218
-151 26 17 24 45 -13 124 -124 274 -200 517 -227 724 -16 127 -4 183 56 263
46 62 40 59 158 67 20 1 40 5 44 8 3 4 11 3 17 -1 6 -4 25 -8 41 -9z m350
-1683 c-4 -6 -10 -8 -15 -5 -5 3 -15 -1 -23 -9 -8 -8 -17 -12 -21 -9 -3 4 -6
2 -6 -3 0 -5 -10 -10 -22 -11 -11 -1 -24 -6 -27 -10 -3 -4 -12 -9 -20 -11 -8
-2 -39 -10 -70 -18 -30 -7 -86 -17 -125 -20 -39 -3 -73 -8 -75 -10 -2 -2 -12
1 -22 7 -11 5 -19 6 -19 1 0 -5 -17 -6 -38 -2 -21 4 -51 6 -65 6 -15 -1 -27 2
-27 6 0 4 -8 7 -17 6 -20 0 -52 7 -98 21 -25 8 -19 10 40 11 118 3 363 18 405
25 14 2 63 9 110 15 47 7 87 14 89 16 9 9 52 3 46 -6z m-1121 -165 c8 -8 19
-15 25 -15 6 0 11 -4 11 -10 0 -5 7 -10 15 -10 8 0 15 -4 15 -9 0 -5 9 -11 20
-14 11 -3 20 -10 20 -17 0 -6 -8 -9 -17 -6 -10 2 -38 8 -63 12 -25 4 -47 8
-50 9 -3 1 -17 5 -32 9 -16 5 -28 13 -28 18 0 17 35 44 62 47 4 1 13 -6 22
-14z"/>
<path d="M4075 1441 c6 -11 4 -13 -8 -8 -10 3 -17 2 -17 -3 0 -6 -3 -9 -7 -8
-16 5 -60 -28 -117 -86 -33 -34 -64 -60 -70 -58 -6 2 -8 1 -4 -3 4 -4 -28 -42
-71 -84 -69 -67 -99 -110 -93 -133 1 -5 -2 -8 -7 -8 -6 0 -8 -17 -5 -37 3 -21
5 -44 6 -50 1 -7 5 -13 10 -13 4 0 7 -3 6 -7 -3 -15 14 -43 23 -37 5 3 9 1 9
-5 0 -5 24 -33 54 -62 30 -29 52 -57 49 -62 -3 -6 -1 -7 5 -3 7 4 12 2 12 -4
0 -6 4 -9 8 -6 4 2 18 -11 31 -30 13 -18 26 -32 30 -30 4 3 12 -3 18 -13 10
-17 4 -20 -70 -39 -103 -27 -200 -48 -252 -56 -22 -4 -65 -11 -95 -16 -93 -16
-262 -40 -325 -45 -33 -3 -76 -8 -95 -10 -19 -3 -71 -7 -115 -10 -44 -3 -111
-8 -148 -11 -153 -13 -620 -18 -802 -9 -133 7 -363 23 -415 30 -19 3 -60 7
-90 10 -68 7 -352 55 -363 62 -4 2 -19 7 -33 9 -15 3 -42 13 -61 23 l-35 17
26 17 c38 26 191 74 303 97 94 19 123 35 123 66 0 37 -44 40 -290 18 -223 -20
-423 -76 -488 -137 -49 -46 -61 -99 -37 -163 31 -82 130 -144 301 -190 54 -14
108 -27 119 -29 11 -2 49 -7 85 -13 125 -20 313 -38 505 -48 176 -10 849 -10
1000 0 257 15 363 24 440 35 33 5 87 12 120 16 68 7 97 11 175 26 30 6 66 12
80 14 151 22 430 104 529 155 22 11 45 20 51 20 11 0 100 -80 100 -90 0 -5
-52 -30 -150 -73 -94 -41 -351 -111 -451 -123 -30 -3 -56 -8 -59 -9 -3 -2 -44
-7 -90 -10 -47 -4 -101 -9 -120 -11 -185 -19 -1196 -25 -1668 -10 -233 8 -252
5 -252 -34 0 -22 20 -39 51 -45 13 -3 35 -7 49 -10 42 -9 66 -13 117 -21 26
-3 57 -8 68 -11 24 -4 202 -29 265 -37 263 -31 436 -40 780 -40 298 -1 487 8
660 29 25 3 63 8 85 10 426 51 659 123 804 248 l35 30 17 -21 c9 -12 19 -18
23 -15 3 4 6 1 6 -4 0 -12 106 -123 112 -118 2 2 14 -11 28 -29 38 -51 141
-85 161 -54 7 10 9 10 9 0 0 -15 43 5 76 37 12 11 25 17 28 14 3 -4 6 -1 6 5
0 7 53 65 119 130 117 118 138 143 148 185 16 69 -11 124 -104 211 -29 27 -49
54 -46 59 3 6 1 7 -4 4 -6 -4 -13 0 -17 8 -3 8 -13 15 -22 15 -10 0 -15 3 -12
6 7 7 -142 154 -156 154 -5 0 -7 2 -4 5 5 6 -124 140 -130 136 -2 -1 -13 11
-25 26 -12 15 -25 30 -29 31 -5 2 -5 9 -2 14 4 6 3 8 -3 5 -6 -4 -33 18 -61
48 -27 30 -55 55 -62 55 -6 0 -8 5 -5 10 3 6 -2 10 -11 10 -10 0 -15 3 -11 6
6 7 -41 54 -54 54 -5 0 -9 5 -9 10 0 13 -57 70 -70 70 -6 0 -10 7 -10 15 0 9
-6 12 -15 9 -8 -4 -15 -2 -15 3 0 5 -14 10 -32 11 -17 2 -38 8 -47 15 -12 10
-13 9 -6 -2z"/>
<path d="M1741 1204 c-110 -30 -174 -95 -173 -177 1 -43 44 -106 96 -142 56
-38 198 -91 275 -101 25 -3 49 -8 52 -10 4 -2 33 -6 65 -9 33 -3 70 -8 83 -10
131 -23 537 -23 656 -1 11 2 42 7 68 10 117 17 314 69 417 109 69 27 86 37 88
56 3 22 -31 71 -49 71 -5 0 -61 32 -125 72 l-116 71 -92 -16 c-294 -54 -352
-60 -526 -61 -160 0 -237 4 -361 20 -57 7 -202 35 -211 41 -5 2 -2 16 6 31 31
59 -33 78 -153 46z"/>
</g>
</svg>
